<?xml version="1.0" standalone="no"?>
<!DOCTYPE svg PUBLIC "-//W3C//DTD SVG 20010904//EN"
 "http://www.w3.org/TR/2001/REC-SVG-20010904/DTD/svg10.dtd">
<svg version="1.0" xmlns="http://www.w3.org/2000/svg"
 width="300.000000pt" height="300.000000pt" viewBox="0 0 300.000000 300.000000"
 preserveAspectRatio="xMidYMid meet">
<metadata>
Created by potrace 1.14, written by Peter Selinger 2001-2017
</metadata>
<g transform="translate(0.000000,300.000000) scale(0.100000,-0.100000)"
fill="#000000" stroke="none">
<path d="M1363 2989 c-349 -31 -665 -180 -918 -434 -370 -370 -516 -882 -400
-1397 60 -268 195 -508 400 -713 370 -370 882 -516 1397 -400 268 60 508 195
713 400 370 370 516 882 400 1397 -60 268 -195 508 -400 713 -257 257 -570
402 -937 435 -124 11 -123 11 -255 -1z m340 -1117 c95 -47 129 -98 91 -136
-23 -24 -60 -19 -107 13 -62 42 -110 54 -191 49 -119 -8 -203 -68 -259 -186
-69 -147 -19 -336 112 -422 25 -17 63 -35 85 -41 58 -16 163 -6 214 20 l42 21
0 95 0 95 -87 0 c-95 0 -123 13 -123 56 0 43 33 54 165 54 169 0 160 10 160
-188 0 -186 1 -184 -101 -232 -161 -77 -352 -50 -477 69 -101 95 -142 207
-135 361 4 81 10 108 35 161 54 114 137 188 258 232 38 13 74 17 151 15 90 -3
107 -7 167 -36z m-1324 14 c6 -8 74 -163 150 -345 l138 -331 138 327 c76 181
145 336 153 346 22 25 68 22 87 -7 14 -22 14 -28 -4 -72 -45 -113 -313 -720
-327 -741 -18 -28 -64 -31 -86 -5 -17 19 -348 772 -348 791 0 7 5 21 10 32 13
23 71 26 89 5z m2054 -23 c160 -76 247 -234 234 -428 -9 -147 -77 -266 -187
-333 -88 -53 -135 -62 -311 -62 -152 0 -158 1 -173 22 -14 19 -16 76 -16 412
0 356 1 391 17 409 17 17 30 19 193 15 173 -3 176 -3 243 -35z"/>
<path d="M2100 1470 l0 -320 113 0 c129 0 176 16 240 78 62 59 90 124 95 219
6 118 -15 181 -87 254 -73 73 -121 89 -258 89 l-103 0 0 -320z"/>
</g>
</svg>
