<svg version="1" xmlns="http://www.w3.org/2000/svg" width="400" height="400" viewBox="0 0 300.000000 300.000000"><path d="M135.5.6C112.6 3.9 98.1 8.3 81.1 17 61.3 27.3 42.8 43.1 29 61.5c-12.1 16.2-22.4 40.1-26.7 62-2.4 12.5-2.4 40.5 0 53 4.4 22.2 14.7 46 27.1 62.5 7.9 10.5 21.5 24.1 32.1 32 16.2 12.1 40.1 22.4 62 26.7 12.5 2.4 40.5 2.4 53 0 22.2-4.4 46-14.7 62.5-27.1 10.5-7.9 24.1-21.5 32-32.1 12.1-16.2 22.4-40.1 26.7-62 2.4-12.5 2.4-40.5 0-53-4.4-22.2-14.7-46-27.1-62.5-7.9-10.6-21.6-24.1-32.1-32-16.1-12-38.8-21.9-59.4-26.1C169.9 1 142.5-.4 135.5.6zm84.1 100.5c11.9 2.2 26.4 11.3 26.4 16.7 0 3.2-3.6 7.2-6.5 7.2-1.2 0-5.2-2-8.9-4.5-8.5-5.6-12.9-6.8-24.2-6.3-11.3.5-18.3 3.6-26.5 11.7-24.9 25-12.1 69 21.9 75.3 7.5 1.4 15.5.2 23.7-3.6l5.5-2.5V169h-10.9c-9.4 0-11.2-.3-13.5-2.1-3.1-2.5-3.4-6.1-.6-8.9 1.8-1.8 3.3-2 18.9-2h17l2.1 2.7c2 2.6 2.1 3.6 1.8 22.6l-.3 19.9-3 2.5c-4.1 3.4-12.9 7.8-19.4 9.7-7 2-21.8 2.1-29.6.1-18.4-4.8-34-20.8-39-40.1-1.9-7.4-1.9-24.1 0-31.4 3.4-12.7 12.3-25.4 22.8-32.3 12.8-8.5 27.1-11.4 42.3-8.6zm-160.4 2.6c.8 1 9.5 21.3 19.4 45C88.4 172.5 96.7 192 97 192c.3 0 8.9-19.6 19-43.5 10.2-24 19.2-44.2 20.1-45 .8-.8 3.2-1.5 5.2-1.5 3.9 0 5.7 1.9 5.7 6.3 0 3.3-43.5 102.9-45.7 104.4-2.4 1.8-5.7 1.6-8.2-.5-1.8-1.5-44.2-96.8-45.7-102.8-1-4 1.9-7.4 6.5-7.4 2.4 0 4.3.6 5.3 1.7z"/></svg>